<?xml version="1.0" encoding="UTF-8" standalone="no" ?>
<!DOCTYPE svg PUBLIC "-//W3C//DTD SVG 1.1//EN" "http://www.w3.org/Graphics/SVG/1.1/DTD/svg11.dtd">
<svg xmlns="http://www.w3.org/2000/svg" xmlns:xlink="http://www.w3.org/1999/xlink" version="1.1" width="1080" height="1080" viewBox="0 0 1080 1080" xml:space="preserve">
<desc>Created with Fabric.js 5.2.4</desc>
<defs>
</defs>
<rect x="0" y="0" width="100%" height="100%" fill="transparent"></rect>
<g transform="matrix(1 0 0 1 540 540)" id="99f9f99e-e7ca-4276-9802-ee83225ce6d2"  >
<rect style="stroke: none; stroke-width: 1; stroke-dasharray: none; stroke-linecap: butt; stroke-dashoffset: 0; stroke-linejoin: miter; stroke-miterlimit: 4; fill: rgb(255,255,255); fill-rule: nonzero; opacity: 1; visibility: hidden;" vector-effect="non-scaling-stroke"  x="-540" y="-540" rx="0" ry="0" width="1080" height="1080" />
</g>
<g transform="matrix(1 0 0 1 540 540)" id="d9bfd9fe-d0bc-4355-9fc1-d3e7541ebd66"  >
</g>
<g transform="matrix(1 0 0 1 540 540)"  >
<g style="" vector-effect="non-scaling-stroke"   >
		<g transform="matrix(0.13 0 0 -0.13 78.89 -0.28)"  >
<path style="stroke: none; stroke-width: 1; stroke-dasharray: none; stroke-linecap: butt; stroke-dashoffset: 0; stroke-linejoin: miter; stroke-miterlimit: 4; fill: rgb(255,255,255); fill-rule: nonzero; opacity: 1;" vector-effect="non-scaling-stroke"  transform=" translate(-6218, -4351.94)" d="M 5355 7803 C 5236 7791 4711 7696 4630 7672 C 4146 7525 3600 7225 3419 7008 C 3342 6916 3343 6914 3518 6906 C 3599 6903 3924 6889 4240 6875 C 5331 6828 5745 6797 6225 6729 C 6605 6676 6845 6624 7220 6517 C 7633 6398 7810 6317 7953 6181 C 8079 6062 8150 5913 8150 5769 C 8150 5407 7693 4862 6545 3856 C 6402 3730 6222 3578 6145 3518 C 5831 3271 5699 3145 5608 3006 C 5485 2816 5528 2587 5738 2310 C 5769 2269 5862 2166 5945 2081 C 6139 1883 6308 1742 6565 1565 C 6620 1527 6757 1428 6870 1346 C 7250 1067 7490 920 7594 903 C 7655 893 7666 876 7376 1254 L 7316 1333 L 7375 1388 C 7408 1418 7547 1517 7685 1608 C 7919 1762 7944 1782 8065 1904 C 8272 2112 8466 2368 8613 2626 C 8733 2837 8887 3172 8943 3345 C 9082 3772 9104 4346 9004 4947 C 8944 5311 8849 5618 8700 5927 C 8531 6279 8335 6557 8070 6820 C 7534 7355 6830 7676 5977 7775 C 5820 7793 5433 7810 5355 7803 z" stroke-linecap="round" />
</g>
		<g transform="matrix(0.13 0 0 -0.13 -144.47 62.97)"  >
<path style="stroke: none; stroke-width: 1; stroke-dasharray: none; stroke-linecap: butt; stroke-dashoffset: 0; stroke-linejoin: miter; stroke-miterlimit: 4; fill: rgb(255,255,255); fill-rule: nonzero; opacity: 1;" vector-effect="non-scaling-stroke"  transform=" translate(-4542.78, -3877.5)" d="M 2188 5843 C 2184 4296 2188 4068 2226 3775 C 2257 3528 2305 3353 2402 3125 C 2674 2485 3059 1999 3640 1560 C 3806 1435 3888 1381 4030 1307 C 4368 1129 4792 986 5180 919 C 5297 899 5348 896 5570 895 L 5825 895 L 6001 932 C 6174 969 6556 1056 6738 1101 C 6791 1114 6830 1129 6830 1136 C 6830 1157 6759 1208 6675 1249 C 6631 1271 6511 1322 6408 1363 C 6256 1425 6167 1469 5938 1601 C 5476 1866 5272 2004 5095 2172 C 4897 2359 4780 2577 4780 2760 C 4780 2823 4804 2925 4833 2990 C 4863 3058 5082 3389 5164 3490 C 5312 3674 5509 3858 5968 4245 C 6239 4472 6604 4808 6704 4922 C 6772 4999 6845 5110 6870 5177 C 6901 5256 6908 5378 6886 5453 C 6843 5601 6672 5701 6392 5742 C 6271 5760 5275 5760 5055 5742 C 4579 5703 4289 5658 3880 5560 C 3652 5505 3519 5480 3454 5480 C 3411 5480 3411 5480 3293 5617 C 3228 5693 3024 5926 2840 6136 C 2651 6351 2475 6561 2436 6618 C 2398 6674 2351 6739 2332 6761 C 2292 6808 2224 6860 2203 6860 C 2192 6860 2190 6689 2188 5843 z" stroke-linecap="round" />
</g>
</g>
</g>
<g transform="matrix(NaN NaN NaN NaN 0 0)"  >
<g style=""   >
</g>
</g>
</svg>